<svg id="visual" viewBox="0 0 960 540" width="960" height="540" xmlns="http://www.w3.org/2000/svg" xmlns:xlink="http://www.w3.org/1999/xlink" version="1.1"><rect x="0" y="0" width="960" height="540" fill="#eef2f7"></rect><defs><linearGradient id="grad1_0" x1="43.8%" y1="0%" x2="100%" y2="100%"><stop offset="14.444444444444446%" stop-color="#9893f4" stop-opacity="1"></stop><stop offset="85.55555555555554%" stop-color="#9893f4" stop-opacity="1"></stop></linearGradient></defs><defs><linearGradient id="grad1_1" x1="43.8%" y1="0%" x2="100%" y2="100%"><stop offset="14.444444444444446%" stop-color="#9893f4" stop-opacity="1"></stop><stop offset="85.55555555555554%" stop-color="#a5b6fa" stop-opacity="1"></stop></linearGradient></defs><defs><linearGradient id="grad1_2" x1="43.8%" y1="0%" x2="100%" y2="100%"><stop offset="14.444444444444446%" stop-color="#c3d6fa" stop-opacity="1"></stop><stop offset="85.55555555555554%" stop-color="#a5b6fa" stop-opacity="1"></stop></linearGradient></defs><defs><linearGradient id="grad1_3" x1="43.8%" y1="0%" x2="100%" y2="100%"><stop offset="14.444444444444446%" stop-color="#c3d6fa" stop-opacity="1"></stop><stop offset="85.55555555555554%" stop-color="#eef2f7" stop-opacity="1"></stop></linearGradient></defs><defs><linearGradient id="grad2_0" x1="0%" y1="0%" x2="56.3%" y2="100%"><stop offset="14.444444444444446%" stop-color="#9893f4" stop-opacity="1"></stop><stop offset="85.55555555555554%" stop-color="#9893f4" stop-opacity="1"></stop></linearGradient></defs><defs><linearGradient id="grad2_1" x1="0%" y1="0%" x2="56.3%" y2="100%"><stop offset="14.444444444444446%" stop-color="#a5b6fa" stop-opacity="1"></stop><stop offset="85.55555555555554%" stop-color="#9893f4" stop-opacity="1"></stop></linearGradient></defs><defs><linearGradient id="grad2_2" x1="0%" y1="0%" x2="56.3%" y2="100%"><stop offset="14.444444444444446%" stop-color="#a5b6fa" stop-opacity="1"></stop><stop offset="85.55555555555554%" stop-color="#c3d6fa" stop-opacity="1"></stop></linearGradient></defs><defs><linearGradient id="grad2_3" x1="0%" y1="0%" x2="56.3%" y2="100%"><stop offset="14.444444444444446%" stop-color="#eef2f7" stop-opacity="1"></stop><stop offset="85.55555555555554%" stop-color="#c3d6fa" stop-opacity="1"></stop></linearGradient></defs><g transform="translate(960, 0)"><path d="M0 351C-42.5 309.7 -84.9 268.3 -141 244.2C-197.1 220.1 -266.7 213.3 -304 175.5C-341.2 137.7 -346.1 68.8 -351 0L0 0Z" fill="#d7e4f9"></path><path d="M0 263.3C-31.9 232.2 -63.7 201.2 -105.7 183.2C-147.8 165.1 -200 160 -228 131.6C-255.9 103.3 -259.6 51.6 -263.2 0L0 0Z" fill="#b2c6fb"></path><path d="M0 175.5C-21.2 154.8 -42.5 134.2 -70.5 122.1C-98.5 110.1 -133.4 106.7 -152 87.8C-170.6 68.8 -173.1 34.4 -175.5 0L0 0Z" fill="#9ca5f8"></path><path d="M0 87.8C-10.6 77.4 -21.2 67.1 -35.2 61.1C-49.3 55 -66.7 53.3 -76 43.9C-85.3 34.4 -86.5 17.2 -87.7 0L0 0Z" fill="#9893f4"></path></g><g transform="translate(0, 540)"><path d="M0 -351C43.3 -311 86.5 -271.1 142.5 -246.8C198.5 -222.6 267.1 -214 304 -175.5C340.8 -137 345.9 -68.5 351 0L0 0Z" fill="#d7e4f9"></path><path d="M0 -263.2C32.5 -233.3 64.9 -203.3 106.9 -185.1C148.8 -166.9 200.3 -160.5 228 -131.6C255.6 -102.7 259.4 -51.4 263.3 0L0 0Z" fill="#b2c6fb"></path><path d="M0 -175.5C21.6 -155.5 43.3 -135.5 71.2 -123.4C99.2 -111.3 133.6 -107 152 -87.8C170.4 -68.5 173 -34.2 175.5 0L0 0Z" fill="#9ca5f8"></path><path d="M0 -87.7C10.8 -77.8 21.6 -67.8 35.6 -61.7C49.6 -55.6 66.8 -53.5 76 -43.9C85.2 -34.2 86.5 -17.1 87.8 0L0 0Z" fill="#9893f4"></path></g></svg>