<svg id="visual" viewBox="0 0 540 960" width="540" height="960" xmlns="http://www.w3.org/2000/svg" xmlns:xlink="http://www.w3.org/1999/xlink" version="1.1"><rect x="0" y="0" width="540" height="960" fill="#eef2f7"></rect><defs><linearGradient id="grad1_0" x1="0%" y1="0%" x2="100%" y2="100%"><stop offset="30%" stop-color="#9893f4" stop-opacity="1"></stop><stop offset="70%" stop-color="#9893f4" stop-opacity="1"></stop></linearGradient></defs><defs><linearGradient id="grad1_1" x1="0%" y1="0%" x2="100%" y2="100%"><stop offset="30%" stop-color="#9893f4" stop-opacity="1"></stop><stop offset="70%" stop-color="#a5b6fa" stop-opacity="1"></stop></linearGradient></defs><defs><linearGradient id="grad1_2" x1="0%" y1="0%" x2="100%" y2="100%"><stop offset="30%" stop-color="#c3d6fa" stop-opacity="1"></stop><stop offset="70%" stop-color="#a5b6fa" stop-opacity="1"></stop></linearGradient></defs><defs><linearGradient id="grad1_3" x1="0%" y1="0%" x2="100%" y2="100%"><stop offset="30%" stop-color="#c3d6fa" stop-opacity="1"></stop><stop offset="70%" stop-color="#eef2f7" stop-opacity="1"></stop></linearGradient></defs><defs><linearGradient id="grad2_0" x1="0%" y1="0%" x2="100%" y2="100%"><stop offset="30%" stop-color="#9893f4" stop-opacity="1"></stop><stop offset="70%" stop-color="#9893f4" stop-opacity="1"></stop></linearGradient></defs><defs><linearGradient id="grad2_1" x1="0%" y1="0%" x2="100%" y2="100%"><stop offset="30%" stop-color="#a5b6fa" stop-opacity="1"></stop><stop offset="70%" stop-color="#9893f4" stop-opacity="1"></stop></linearGradient></defs><defs><linearGradient id="grad2_2" x1="0%" y1="0%" x2="100%" y2="100%"><stop offset="30%" stop-color="#a5b6fa" stop-opacity="1"></stop><stop offset="70%" stop-color="#c3d6fa" stop-opacity="1"></stop></linearGradient></defs><defs><linearGradient id="grad2_3" x1="0%" y1="0%" x2="100%" y2="100%"><stop offset="30%" stop-color="#eef2f7" stop-opacity="1"></stop><stop offset="70%" stop-color="#c3d6fa" stop-opacity="1"></stop></linearGradient></defs><g transform="translate(540, 0)"><path d="M0 378C-41.5 343.7 -83.1 309.5 -117.5 283.6C-151.9 257.8 -179.1 240.3 -221.3 221.3C-263.5 202.3 -320.6 181.8 -349.2 144.7C-377.8 107.5 -377.9 53.8 -378 0L0 0Z" fill="#d7e4f9"></path><path d="M0 283.5C-31.2 257.8 -62.3 232.1 -88.1 212.7C-113.9 193.3 -134.4 180.2 -166 166C-197.6 151.7 -240.5 136.3 -261.9 108.5C-283.4 80.6 -283.4 40.3 -283.5 0L0 0Z" fill="#b2c6fb"></path><path d="M0 189C-20.8 171.9 -41.5 154.7 -58.7 141.8C-75.9 128.9 -89.6 120.2 -110.7 110.7C-131.8 101.2 -160.3 90.9 -174.6 72.3C-188.9 53.8 -189 26.9 -189 0L0 0Z" fill="#9ca5f8"></path><path d="M0 94.5C-10.4 85.9 -20.8 77.4 -29.4 70.9C-38 64.4 -44.8 60.1 -55.3 55.3C-65.9 50.6 -80.2 45.4 -87.3 36.2C-94.5 26.9 -94.5 13.4 -94.5 0L0 0Z" fill="#9893f4"></path></g><g transform="translate(0, 960)"><path d="M0 -378C45.3 -362.8 90.7 -347.6 137.4 -331.7C184.1 -315.8 232.2 -299.2 267.3 -267.3C302.4 -235.4 324.6 -188.3 340.9 -141.2C357.2 -94.1 367.6 -47.1 378 0L0 0Z" fill="#d7e4f9"></path><path d="M0 -283.5C34 -272.1 68 -260.7 103 -248.8C138.1 -236.8 174.1 -224.4 200.5 -200.5C226.8 -176.6 243.5 -141.2 255.7 -105.9C267.9 -70.6 275.7 -35.3 283.5 0L0 0Z" fill="#b2c6fb"></path><path d="M0 -189C22.7 -181.4 45.3 -173.8 68.7 -165.8C92 -157.9 116.1 -149.6 133.6 -133.6C151.2 -117.7 162.3 -94.2 170.5 -70.6C178.6 -47.1 183.8 -23.5 189 0L0 0Z" fill="#9ca5f8"></path><path d="M0 -94.5C11.3 -90.7 22.7 -86.9 34.3 -82.9C46 -78.9 58 -74.8 66.8 -66.8C75.6 -58.9 81.2 -47.1 85.2 -35.3C89.3 -23.5 91.9 -11.8 94.5 0L0 0Z" fill="#9893f4"></path></g></svg>