<svg id="visual" viewBox="0 0 900 600" width="900" height="600" xmlns="http://www.w3.org/2000/svg" xmlns:xlink="http://www.w3.org/1999/xlink" version="1.1"><path d="M0 73L13.7 74C27.3 75 54.7 77 82 80C109.3 83 136.7 87 163.8 85C191 83 218 75 245.2 71C272.3 67 299.7 67 327 62C354.3 57 381.7 47 409 43C436.3 39 463.7 41 491 50C518.3 59 545.7 75 573 78C600.3 81 627.7 71 654.8 69C682 67 709 73 736.2 76C763.3 79 790.7 79 818 78C845.3 77 872.7 75 886.3 74L900 73L900 0L886.3 0C872.7 0 845.3 0 818 0C790.7 0 763.3 0 736.2 0C709 0 682 0 654.8 0C627.7 0 600.3 0 573 0C545.7 0 518.3 0 491 0C463.7 0 436.3 0 409 0C381.7 0 354.3 0 327 0C299.7 0 272.3 0 245.2 0C218 0 191 0 163.8 0C136.7 0 109.3 0 82 0C54.7 0 27.3 0 13.7 0L0 0Z" fill="#b8b5f9"></path><path d="M0 193L13.7 189C27.3 185 54.7 177 82 185C109.3 193 136.7 217 163.8 220C191 223 218 205 245.2 187C272.3 169 299.7 151 327 146C354.3 141 381.7 149 409 145C436.3 141 463.7 125 491 134C518.3 143 545.7 177 573 182C600.3 187 627.7 163 654.8 151C682 139 709 139 736.2 148C763.3 157 790.7 175 818 182C845.3 189 872.7 185 886.3 183L900 181L900 71L886.3 72C872.7 73 845.3 75 818 76C790.7 77 763.3 77 736.2 74C709 71 682 65 654.8 67C627.7 69 600.3 79 573 76C545.7 73 518.3 57 491 48C463.7 39 436.3 37 409 41C381.7 45 354.3 55 327 60C299.7 65 272.3 65 245.2 69C218 73 191 81 163.8 83C136.7 85 109.3 81 82 78C54.7 75 27.3 73 13.7 72L0 71Z" fill="#a8a4f7"></path><path d="M0 361L13.7 359C27.3 357 54.7 353 82 347C109.3 341 136.7 333 163.8 327C191 321 218 317 245.2 306C272.3 295 299.7 277 327 269C354.3 261 381.7 263 409 270C436.3 277 463.7 289 491 306C518.3 323 545.7 345 573 342C600.3 339 627.7 311 654.8 300C682 289 709 295 736.2 305C763.3 315 790.7 329 818 343C845.3 357 872.7 371 886.3 378L900 385L900 179L886.3 181C872.7 183 845.3 187 818 180C790.7 173 763.3 155 736.2 146C709 137 682 137 654.8 149C627.7 161 600.3 185 573 180C545.7 175 518.3 141 491 132C463.7 123 436.3 139 409 143C381.7 147 354.3 139 327 144C299.7 149 272.3 167 245.2 185C218 203 191 221 163.8 218C136.7 215 109.3 191 82 183C54.7 175 27.3 183 13.7 187L0 191Z" fill="#9893f4"></path><path d="M0 475L13.7 473C27.3 471 54.7 467 82 452C109.3 437 136.7 411 163.8 397C191 383 218 381 245.2 377C272.3 373 299.7 367 327 367C354.3 367 381.7 373 409 373C436.3 373 463.7 367 491 374C518.3 381 545.7 401 573 397C600.3 393 627.7 365 654.8 362C682 359 709 381 736.2 395C763.3 409 790.7 415 818 421C845.3 427 872.7 433 886.3 436L900 439L900 383L886.3 376C872.7 369 845.3 355 818 341C790.7 327 763.3 313 736.2 303C709 293 682 287 654.8 298C627.7 309 600.3 337 573 340C545.7 343 518.3 321 491 304C463.7 287 436.3 275 409 268C381.7 261 354.3 259 327 267C299.7 275 272.3 293 245.2 304C218 315 191 319 163.8 325C136.7 331 109.3 339 82 345C54.7 351 27.3 355 13.7 357L0 359Z" fill="#857eea"></path><path d="M0 601L13.7 601C27.3 601 54.7 601 82 601C109.3 601 136.7 601 163.8 601C191 601 218 601 245.2 601C272.3 601 299.7 601 327 601C354.3 601 381.7 601 409 601C436.3 601 463.7 601 491 601C518.3 601 545.7 601 573 601C600.3 601 627.7 601 654.8 601C682 601 709 601 736.2 601C763.3 601 790.7 601 818 601C845.3 601 872.7 601 886.3 601L900 601L900 437L886.3 434C872.7 431 845.3 425 818 419C790.7 413 763.3 407 736.2 393C709 379 682 357 654.8 360C627.7 363 600.3 391 573 395C545.7 399 518.3 379 491 372C463.7 365 436.3 371 409 371C381.7 371 354.3 365 327 365C299.7 365 272.3 371 245.2 375C218 379 191 381 163.8 395C136.7 409 109.3 435 82 450C54.7 465 27.3 469 13.7 471L0 473Z" fill="#736adf"></path></svg>